<svg xmlns="http://www.w3.org/2000/svg" xmlns:xlink="http://www.w3.org/1999/xlink" viewBox="0 0 450.92 366.43"><defs><style>.cls-1{fill:url(#linear-gradient);}.cls-2{fill:url(#linear-gradient-2);}.cls-3{fill:url(#linear-gradient-3);}.cls-4{fill:none;stroke:#b4ddf1;stroke-miterlimit:10;stroke-width:2px;}.cls-5{fill:#ed2024;}.cls-6{font-size:29px;fill:#2a71b8;font-family:Marion-Bold, Marion;font-weight:700;letter-spacing:-0.03em;}.cls-7{letter-spacing:0em;}</style><linearGradient id="linear-gradient" x1="277.36" y1="120.14" x2="277.36" y2="213.92" gradientUnits="userSpaceOnUse"><stop offset="0" stop-color="#ed2024"/><stop offset="1" stop-color="#fff"/></linearGradient><linearGradient id="linear-gradient-2" x1="221.23" y1="120.14" x2="221.23" y2="213.92" xlink:href="#linear-gradient"/><linearGradient id="linear-gradient-3" x1="225.46" y1="144.37" x2="225.46" y2="258" gradientUnits="userSpaceOnUse"><stop offset="0" stop-color="#ed2024"/><stop offset="1" stop-color="#fff" stop-opacity="0"/></linearGradient></defs><title>Asset 6</title><g id="Layer_2" data-name="Layer 2"><g id="Layer_3" data-name="Layer 3"><polygon class="cls-1" points="277.84 135.7 276.88 130.59 276.88 135.7 277.84 135.7"/><polygon class="cls-2" points="221.38 128.84 221.38 128.66 221.08 128.84 221.38 128.84"/><path class="cls-3" d="M164.65,269H450.47V221.77h.45V131.86H436.33v-17h-21V67.25h-9.73V34H401.9V67.25h-15V34h-3.74V67.25H375l-6,84.63h-8.23v3h-2.25v-31h-3v-6h-3.23c-.16-1.53-.36-3-.6-4.54H354V102.76h-4.72c-.27-.89-.55-1.76-.85-2.64h1.46V89.54H344c-.45-.89-.92-1.77-1.4-2.64h.88V76.32H336v.42c-.49-.63-1-1.26-1.5-1.88V65h-7.48v1.91c-1.22-1.12-2.46-2.21-3.74-3.25V55.92h-7.49V58.3c-1.7-1.06-3.45-2.07-5.24-3V49.12h-7.48V52a67.89,67.89,0,0,0-6.74-2.18V45.34h-7.48v2.88c-2.22-.34-4.46-.59-6.74-.72V43.83h-7.48v3.64a70.68,70.68,0,0,0-7.48.75V44.58H259.7V49.8c-2,.54-4,1.19-6,1.91V49.12h-7.48v5.81c-1.79.9-3.53,1.88-5.24,2.92V55.92h-7.48V63q-1.53,1.2-3,2.49V65H223v8.08c-.92,1.06-1.81,2.15-2.68,3.26h-6.3v9.44c-.64,1.12-1.24,2.25-1.83,3.4h-5.66V99.74h1.2c-.42,1.25-.81,2.51-1.18,3.78h-3.76V114.1h1.46q-.28,1.88-.48,3.78h-2.48v10.58h2.07c.06,2.55.22,5.07.5,7.55h-1.82v10.58h3.7c.57,2.31,1.24,4.58,2,6.8h-1.94v1.51H181.87v31.74h-12v-2.27H165.4V124.68h-6V76.32h-9.73v-37h-3V21.91h-1.5V39.29H143V19.65h-.75V0h-.75V19.65h-.75V39.29h-4.49V19.65h-.75V0h-.74V19.65H134V39.29h-2.25V22.67H131V39.29h-3v37h-5.24v48.36H117.5v62H104v3H98.79V198h-3V149.61H88.31V117.88h1.5v-9.07h-9V105h-9v3.78h-9v9.07h1.49v31.73H60.62v13.6H44.16v13.6h-12v3H8.23V164H0v58.94H.4V269H117.5M348,123.92H330.24c0-.5,0-1,0-1.51,0-.33,0-.66,0-1l17.77.38Zm-96,3,19.75-5.87,0,.17-19.5,11.92v-6.22Zm21-.78L261.25,154.9h-8.63l20.06-29.2C272.77,125.85,272.87,126,273,126.16Zm.87,1a7.09,7.09,0,0,0,1.26,1l-5,26.73h-7.56Zm2.37,1.53a7,7,0,0,0,1.36.38l.25,25.8h-6.5Zm-4.61-6-19.39,17.85v-6ZM272,124c0,.13.09.26.13.39l-19.87,28.93V142.22Zm27.41,7.33v4.39l-13.58-12.5a1,1,0,0,1,0-.17Zm0,31.84H299L284.1,126.79c.15-.17.29-.35.43-.54l14.84,21.62Zm-14.17-38.1c.09-.18.16-.36.23-.54l13.94,12.83v8.34Zm-2,2.57,14.49,35.53h-9.39l-6.48-34.68A7.53,7.53,0,0,0,283.17,127.68Zm3.88,35.53H285.9V157Zm12.32-36.71V130l-13.49-8.24v-.06M280.64,129l4.86,26H279l-.25-25.69h0A6.67,6.67,0,0,0,280.64,129Zm-32.89-2H247v-4.53h-7.49v2.27h-6v-2.27h-1.7L271.27,120Zm81.33-4.53c0,.51,0,1,0,1.51H299.37v1.3l-13.18-4.73,42.86.9C329.06,121.73,329.08,122.07,329.08,122.41Zm-43.74-3.15a5.48,5.48,0,0,0-.53-1l43.24-6a50.15,50.15,0,0,1,1,7.91Zm.62-2.4,39.16-14.06a50.3,50.3,0,0,1,2.66,8.28Zm-.31-1.17,34.9-21.32a50.24,50.24,0,0,1,4.07,7.33Zm-.44-1.16,29.6-27.24a50.84,50.84,0,0,1,5.05,6.09Zm-1.41-.33,23.06-33.59a51.62,51.62,0,0,1,7.1,5.82Zm-.85-.89L298.2,75.92a51.2,51.2,0,0,1,7.65,4Zm-2.06,1.86-.3-.07L288.48,73a48.91,48.91,0,0,1,8.6,2.52Zm-1.48-.28c-.2,0-.41,0-.62,0h-.08L279.13,72a50,50,0,0,1,8.17.73Zm-1.9,0h-.07V115h0l-7.88-42.11a50.32,50.32,0,0,1,8.38-.85Zm-1.24.46a2.34,2.34,0,0,1-.24.09L259.85,75.73a51,51,0,0,1,8.52-2.63Zm-2.39-2-22.68-33a49.88,49.88,0,0,1,7.54-4.1Zm-.86.89L243.25,86.78a50.33,50.33,0,0,1,7-5.81Zm-1.41.33L237.49,93.7a51.06,51.06,0,0,1,4.92-6Zm-.43,1.16-38.33-13.76a50,50,0,0,1,4-7.23Zm-.06,1.26-41.46-5.29a50.2,50.2,0,0,1,2.7-8.62Zm1.56,1.42-.17.28-44,2.75a51.3,51.3,0,0,1,.89-8.55ZM219.29,154.9h-.36l.36-.21Zm131.77-37h-3v2.7l-17.8-.37a50.35,50.35,0,0,0-1-8.11l17.28-2.39v3.63h3.93C350.69,114.84,350.9,116.35,351.06,117.88Zm-3-15.12h-1.5v5.73L329,110.92a51,51,0,0,0-2.73-8.52l16.15-5.8v3.52h4.77C347.47,101,347.75,101.88,348,102.76ZM342.7,89.54h-.3v5.77l-16.65,6a52.2,52.2,0,0,0-4.17-7.55L336,84.91v2h5.23C341.76,87.77,342.25,88.65,342.7,89.54ZM336,83.49l-15.15,9.26a52.2,52.2,0,0,0-5.19-6.27l11.85-10.92h6c.85,1,1.68,2.11,2.48,3.2Zm-9-15v5.84L314.85,85.62a51.76,51.76,0,0,0-7.3-6l9-13.13h6.76V65.21C324.6,66.28,325.85,67.38,327.06,68.53Zm-11.23-8.81v5.7L306.53,79a50.66,50.66,0,0,0-7.88-4.17l6.17-15.11h5.77v-3Q313.27,58.09,315.83,59.72Zm-12.72-6.45v6.42h.41l-6,14.67a50.79,50.79,0,0,0-8.84-2.59l3-15.85h4.7V51A70.89,70.89,0,0,1,303.11,53.27Zm-14.22-3.83v6.48h1.56l-2.93,15.64a51.4,51.4,0,0,0-8.38-.75l.16-16.41h2.85V48.72A67.75,67.75,0,0,1,288.89,49.44Zm-14.22-.76V54.4h3.43l-.16,16.42a51,51,0,0,0-8.61.87l-3.09-16.53h.95V49.44A70.68,70.68,0,0,1,274.67,48.68ZM259.7,51v4.12H265l3.13,16.75a50.83,50.83,0,0,0-8.76,2.7l-6.08-14.92h.4V53C255.68,52.26,257.67,51.6,259.7,51Zm-13.47,5.24v3.41H252l6.27,15.39a51.91,51.91,0,0,0-7.76,4.22L241,65.42V59.26C242.7,58.2,244.44,57.19,246.23,56.28Zm-12.72,8.31v1.9h6.76L249.52,80a51.9,51.9,0,0,0-7.16,6L230.51,75.06V67.15C231.49,66.27,232.49,65.42,233.51,64.59Zm-4.24,11,12.26,11.28a51.45,51.45,0,0,0-5.07,6.23L221.53,84V76.77c.49-.62,1-1.23,1.5-1.84v.63ZM214.8,86.9h6.73V85.37l14.25,8.7a51.57,51.57,0,0,0-4.06,7.45l-17.67-6.34v-6h-.48C214,88.4,214.38,87.65,214.8,86.9ZM209,99.74h5V96.46l17.18,6.17a51.16,51.16,0,0,0-2.77,8.88l-18.15-2.31v-5.68h-2.49C208.19,102.25,208.6,101,209,99.74ZM205.5,114.1h4.81v-3.68l17.91,2.28a51.74,51.74,0,0,0-.9,8.78l-18.51,1.15v-4.75H205C205.15,116.61,205.31,115.35,205.5,114.1Zm-.91,14.36h4.22v-4.61L223,123v4h-3.74v8.48l-9.73,2.89V136H205.1Q204.68,132.29,204.59,128.46ZM207,146.59h2.55v-7l9.73-2.89v16.59l-2.67,1.63H213.3v-1.51H209Q207.88,150.06,207,146.59Z"/><line class="cls-4" x1="53.96" y1="308" x2="396.96" y2="308"/><line class="cls-4" x1="53.96" y1="302" x2="396.96" y2="302"/><polygon class="cls-5" points="336.96 332.47 322.04 334.82 316.54 320.3 311.05 334.82 296.13 332.47 307.51 343.46 297.31 355.24 310.65 351.7 316.17 365.49 316.54 366.43 316.92 365.49 322.43 351.7 335.78 355.24 325.57 343.46 336.96 332.47"/><polygon class="cls-5" points="273.96 332.47 259.04 334.82 253.54 320.3 248.05 334.82 233.13 332.47 244.51 343.46 234.31 355.24 247.65 351.7 253.17 365.49 253.54 366.43 253.92 365.49 259.43 351.7 272.78 355.24 262.57 343.46 273.96 332.47"/><polygon class="cls-5" points="217.79 332.03 202.88 334.39 197.38 319.86 191.88 334.39 176.96 332.03 188.35 343.02 178.14 354.8 191.49 351.27 197 365.05 197.38 365.99 197.76 365.05 203.27 351.27 216.62 354.8 206.41 343.02 217.79 332.03"/><polygon class="cls-5" points="154.79 332.03 139.88 334.39 134.38 319.86 128.88 334.39 113.96 332.03 125.35 343.02 115.14 354.8 128.49 351.27 134 365.05 134.38 365.99 134.76 365.05 140.27 351.27 153.62 354.8 143.41 343.02 154.79 332.03"/><text class="cls-6" transform="translate(20.86 289.04)">D<tspan class="cls-7" x="22.01" y="0">AN MARQUEZ INSURANCE</tspan></text></g></g></svg>